<svg width="400" height="400" viewBox="0 0 400 400" fill="none" xmlns="http://www.w3.org/2000/svg">
<circle cx="200" cy="200" r="200" fill="none"/>
<path d="M185.969 263C184.471 263 183.202 262.479 182.16 261.438C181.053 260.331 180.5 259.029 180.5 257.531V179.016C180.5 170.878 177.635 163.944 171.906 158.215C166.112 152.421 159.178 149.523 151.105 149.523H116.145C108.072 149.523 101.138 152.421 95.3438 158.215C89.6146 163.944 86.75 170.878 86.75 179.016V257.531C86.75 259.029 86.1966 260.331 85.0898 261.438C84.0482 262.479 82.7786 263 81.2812 263C79.7839 263 78.4818 262.479 77.375 261.438C76.3333 260.331 75.8125 259.029 75.8125 257.531V179.016C75.8125 167.883 79.7513 158.378 87.6289 150.5C95.5065 142.622 105.012 138.684 116.145 138.684H151.105C162.238 138.684 171.743 142.622 179.621 150.5C187.499 158.378 191.438 167.883 191.438 179.016V257.531C191.438 259.029 190.884 260.331 189.777 261.438C188.736 262.479 187.466 263 185.969 263ZM282.355 195.422C280.793 195.422 279.491 195.943 278.449 196.984C277.408 198.026 276.887 199.296 276.887 200.793C276.887 202.355 277.408 203.658 278.449 204.699C279.491 205.741 280.793 206.262 282.355 206.262H288.898C295.214 206.262 300.585 208.508 305.012 213C309.504 217.492 311.75 222.896 311.75 229.211C311.75 235.526 309.504 240.93 305.012 245.422C300.585 249.849 295.214 252.062 288.898 252.062H212.531C211.034 252.062 209.732 252.616 208.625 253.723C207.583 254.764 207.062 256.034 207.062 257.531C207.062 259.029 207.583 260.331 208.625 261.438C209.732 262.479 211.034 263 212.531 263H288.898C298.208 263 306.151 259.68 312.727 253.039C319.367 246.464 322.688 238.521 322.688 229.211C322.688 219.901 319.367 211.926 312.727 205.285C306.151 198.71 298.208 195.422 288.898 195.422H282.355ZM247.395 206.262C248.892 206.262 250.194 205.741 251.301 204.699C252.342 203.658 252.863 202.355 252.863 200.793C252.863 199.296 252.342 198.026 251.301 196.984C250.194 195.943 248.892 195.422 247.395 195.422H240.852C234.536 195.422 229.133 193.176 224.641 188.684C220.214 184.191 218 178.788 218 172.473C218 166.158 220.214 160.754 224.641 156.262C229.133 151.77 234.536 149.523 240.852 149.523H317.219C318.716 149.523 319.986 149.003 321.027 147.961C322.134 146.919 322.688 145.65 322.688 144.152C322.688 142.655 322.134 141.353 321.027 140.246C319.986 139.204 318.716 138.684 317.219 138.684H240.852C231.542 138.684 223.599 141.971 217.023 148.547C210.383 155.188 207.062 163.163 207.062 172.473C207.062 181.783 210.383 189.758 217.023 196.398C223.599 202.974 231.542 206.262 240.852 206.262H247.395Z" fill="white"/>
</svg>
